<?xml version="1.0" standalone="no"?>
<!DOCTYPE svg PUBLIC "-//W3C//DTD SVG 20010904//EN"
 "http://www.w3.org/TR/2001/REC-SVG-20010904/DTD/svg10.dtd">
<svg version="1.0" xmlns="http://www.w3.org/2000/svg"
 width="1280.000000pt" height="1280.000000pt" viewBox="0 0 1280.000000 1280.000000"
 preserveAspectRatio="xMidYMid meet">
<metadata>
Created by potrace 1.15, written by Peter Selinger 2001-2017
</metadata>
<g transform="translate(0.000000,1280.000000) scale(0.100000,-0.100000)"
fill="#000000" stroke="none">
<path d="M5965 12789 c-814 -67 -1494 -236 -2185 -541 -241 -107 -566 -280
-765 -409 -93 -60 -95 -61 -95 -54 0 3 23 19 50 36 28 17 50 33 50 36 0 11
-305 -192 -317 -211 -4 -6 22 10 58 35 73 51 99 67 84 52 -5 -6 -71 -54 -146
-107 -144 -102 -355 -267 -479 -374 -60 -51 -64 -53 -20 -12 62 60 248 211
393 319 53 41 97 76 97 78 0 3 -17 -7 -37 -23 -340 -253 -588 -466 -830 -713
-129 -131 -166 -175 -130 -155 6 4 -8 -14 -33 -40 -24 -25 -46 -46 -49 -46 -3
0 13 18 34 40 21 22 35 40 30 39 -11 0 -207 -224 -214 -243 -2 -6 4 -4 15 4
12 9 10 4 -5 -13 -27 -30 -41 -37 -20 -9 11 14 10 13 -9 -2 -23 -20 -31 -42
-10 -30 7 4 4 -2 -6 -14 -23 -26 -34 -29 -15 -4 11 14 10 13 -9 -2 -23 -20
-31 -42 -10 -30 7 4 4 -2 -6 -14 -23 -26 -34 -29 -15 -4 11 14 10 13 -9 -2
-23 -20 -31 -42 -9 -30 8 5 8 2 -2 -9 -16 -20 -25 -23 -15 -4 4 6 -2 3 -14 -7
-26 -23 -30 -45 -5 -25 16 13 17 12 5 -3 -8 -10 -19 -16 -24 -15 -6 1 -13 -4
-16 -12 -3 -9 0 -11 9 -6 8 5 5 -1 -5 -13 -23 -26 -34 -29 -15 -4 11 14 10 13
-9 -2 -23 -20 -31 -42 -9 -30 8 5 8 2 -2 -9 -16 -20 -26 -23 -15 -4 5 8 2 8
-9 -2 -19 -15 -23 -36 -5 -25 7 5 8 3 4 -5 -5 -7 -11 -10 -14 -7 -7 7 -32 -13
-32 -26 0 -6 8 -4 18 3 15 13 16 12 4 -3 -8 -10 -19 -16 -24 -15 -6 1 -13 -4
-16 -12 -3 -9 0 -11 9 -6 8 5 11 4 6 -1 -5 -5 -14 -9 -19 -9 -6 0 -13 -6 -16
-14 -3 -9 0 -11 9 -5 12 7 12 5 0 -9 -16 -20 -26 -23 -15 -4 5 8 2 8 -9 -2
-20 -16 -23 -36 -4 -25 7 4 9 3 4 -2 -5 -5 -14 -9 -19 -9 -6 0 -13 -6 -16 -14
-3 -9 0 -11 8 -6 9 5 11 4 6 -4 -4 -6 -11 -9 -16 -6 -5 3 -18 -8 -29 -24 -26
-36 -27 -48 -3 -30 15 13 16 12 3 -3 -7 -10 -17 -16 -21 -13 -5 3 -18 -10 -29
-29 -24 -38 -26 -50 -8 -40 7 4 9 3 4 -2 -5 -5 -14 -9 -19 -9 -6 0 -13 -6 -16
-14 -3 -9 0 -11 8 -6 9 5 11 4 6 -4 -4 -6 -11 -9 -16 -6 -5 3 -14 -3 -19 -14
-14 -26 -14 -34 1 -25 7 4 8 3 4 -4 -4 -7 -14 -12 -22 -12 -8 0 -14 -5 -14
-11 0 -5 5 -7 12 -3 7 4 8 3 4 -5 -4 -6 -11 -9 -16 -6 -12 7 -43 -52 -35 -66
4 -5 1 -8 -6 -7 -6 2 -14 -3 -17 -11 -3 -9 0 -11 8 -6 9 5 11 4 6 -4 -4 -6
-11 -9 -16 -6 -5 3 -16 -8 -25 -24 -19 -38 -19 -50 1 -25 14 18 15 18 4 -3 -6
-13 -18 -23 -28 -23 -15 0 -15 -2 -2 -10 13 -8 12 -10 -4 -10 -13 0 -17 -5
-13 -20 3 -11 0 -23 -5 -27 -7 -4 -8 -1 -3 7 5 9 4 11 -4 6 -11 -7 -51 -78
-51 -91 0 -3 5 -3 11 1 8 4 8 0 0 -15 -7 -11 -14 -21 -17 -21 -3 0 -2 6 2 13
5 7 1 7 -10 -2 -9 -8 -15 -23 -13 -32 3 -11 0 -17 -7 -16 -6 1 -11 -8 -10 -20
0 -13 -5 -23 -11 -23 -18 0 -37 -47 -22 -54 7 -2 5 -5 -5 -5 -18 -1 -33 -34
-23 -51 4 -6 1 -9 -7 -8 -8 2 -13 -6 -12 -19 0 -12 -4 -21 -10 -20 -5 1 -11
-7 -13 -18 -3 -16 -2 -17 6 -5 6 8 11 11 10 5 0 -13 -38 -83 -39 -72 0 5 5 17
10 28 6 10 8 19 6 19 -6 0 -36 -55 -36 -65 0 -3 4 -4 9 -1 5 4 7 -3 4 -15 -4
-15 -8 -17 -14 -8 -5 8 -13 0 -23 -26 -19 -44 -19 -48 -6 -40 14 9 12 -5 -8
-42 -9 -18 -21 -32 -26 -32 -5 0 -29 -48 -53 -108 -44 -112 -56 -157 -22 -88
11 22 17 32 14 22 -3 -11 -8 -29 -11 -42 -3 -13 -12 -26 -20 -29 -7 -3 -20
-22 -29 -42 -17 -41 -20 -67 -5 -44 9 13 10 13 10 0 0 -8 -5 -22 -10 -30 -9
-13 -10 -13 -10 0 0 13 -1 13 -10 0 -13 -20 -13 -33 0 -25 12 7 12 -2 0 -30
-6 -13 -9 -15 -9 -5 -1 13 -2 13 -11 0 -13 -21 -12 -33 2 -24 8 5 9 2 5 -10
-4 -10 -7 -23 -7 -29 0 -8 -4 -7 -9 2 -7 11 -10 9 -16 -9 -5 -15 -2 -25 6 -31
12 -8 6 -13 -12 -11 -9 2 -22 -49 -14 -56 3 -3 5 2 5 11 0 9 4 18 9 21 5 4 4
-9 -1 -28 -6 -19 -14 -35 -17 -34 -18 2 -24 -3 -13 -10 10 -7 7 -30 -15 -110
-17 -63 -30 -96 -34 -85 -4 11 -12 -10 -24 -55 -9 -40 -15 -75 -13 -78 3 -2
10 21 17 52 7 30 15 54 17 51 2 -2 -8 -56 -23 -121 -17 -73 -30 -111 -34 -99
-4 13 -8 7 -13 -21 -4 -21 -5 -41 -2 -44 3 -3 6 6 7 19 0 13 2 20 5 14 2 -5
-9 -77 -25 -160 -16 -82 -30 -136 -31 -120 l-2 30 -7 -30 c-4 -16 -3 -33 2
-36 4 -3 -1 -71 -12 -150 -49 -353 -56 -465 -56 -904 0 -332 4 -454 18 -585
23 -217 62 -482 93 -644 15 -78 22 -132 16 -134 -5 -1 -7 -13 -4 -24 5 -21 6
-21 12 -3 5 15 9 11 14 -19 4 -22 3 -42 -2 -45 -5 -3 -6 -15 -1 -26 l8 -20 1
20 c1 11 8 -2 16 -30 18 -64 16 -94 -2 -35 -12 40 -13 41 -9 9 3 -19 12 -55
20 -80 13 -41 14 -41 10 -9 -4 29 -2 27 11 -14 12 -37 13 -50 4 -56 -9 -5 -9
-9 -1 -14 6 -4 11 -4 12 1 1 12 18 -30 18 -47 1 -13 0 -13 -9 0 -13 21 -12 3
3 -48 7 -24 17 -42 22 -40 12 4 44 -96 32 -103 -5 -4 -6 -17 -2 -29 5 -15 10
-19 14 -11 5 7 13 -5 20 -30 7 -22 15 -48 18 -57 4 -10 2 -13 -5 -8 -14 9 -15
-3 -2 -24 9 -13 10 -13 10 0 0 13 1 13 10 0 5 -8 10 -22 10 -30 0 -13 -1 -13
-11 0 -8 11 -9 9 -3 -10 10 -37 33 -80 43 -80 5 0 12 -11 15 -24 3 -13 9 -32
13 -42 4 -12 3 -15 -5 -10 -7 4 -12 5 -12 3 0 -12 82 -203 91 -212 7 -6 7 -1
-1 13 -6 13 -9 26 -6 30 3 3 6 3 6 0 0 -3 7 -22 16 -43 8 -20 10 -34 5 -30
-14 8 -14 4 4 -39 9 -20 19 -34 24 -31 5 2 12 -2 15 -11 3 -8 2 -12 -4 -9 -6
3 -10 3 -10 0 0 -10 30 -65 36 -65 2 0 0 9 -6 19 -5 11 -10 23 -10 28 1 11 39
-59 39 -72 1 -5 -4 -3 -10 5 -8 12 -9 11 -6 -5 2 -11 8 -19 14 -18 6 1 9 -6 6
-17 -4 -14 0 -20 10 -20 10 0 13 -6 10 -20 -4 -14 0 -20 11 -20 10 0 14 -5 11
-10 -10 -17 5 -50 23 -50 15 0 15 -2 2 -10 -13 -8 -13 -10 1 -10 10 0 15 -8
15 -22 -1 -13 5 -23 13 -23 8 0 16 -7 18 -15 4 -13 3 -13 -6 0 -9 13 -11 13
-11 -1 0 -9 8 -23 17 -30 11 -10 14 -10 9 -1 -4 6 -5 12 -2 12 3 0 13 -15 21
-32 14 -29 14 -31 0 -14 -21 27 -19 13 5 -34 22 -43 50 -70 30 -29 -10 22 -10
22 3 6 8 -10 13 -27 10 -37 -4 -15 0 -20 13 -20 16 0 17 -2 4 -10 -13 -8 -13
-10 2 -10 9 0 20 -5 24 -12 4 -7 3 -8 -4 -4 -32 20 16 -67 56 -103 15 -13 21
-20 14 -17 -17 10 -15 -2 9 -40 11 -19 25 -32 29 -29 5 3 12 0 16 -6 5 -8 3
-9 -6 -4 -8 5 -11 3 -8 -6 3 -8 10 -14 15 -14 6 0 15 -4 20 -9 5 -5 2 -6 -6
-1 -9 5 -12 3 -9 -6 3 -8 11 -13 17 -11 7 1 10 -2 6 -8 -8 -13 13 -52 25 -45
5 3 12 0 16 -6 5 -8 3 -9 -6 -4 -8 5 -11 3 -8 -6 3 -8 10 -14 15 -14 6 0 15
-4 20 -9 5 -6 2 -6 -6 -1 -11 6 -13 4 -8 -7 7 -20 77 -118 84 -118 2 0 1 6 -3
13 -5 8 -2 8 9 -2 19 -15 23 -26 6 -15 -7 4 -10 1 -7 -7 3 -8 10 -14 15 -14 6
0 15 -4 20 -9 5 -5 2 -6 -6 -1 -9 5 -12 3 -9 -6 3 -8 10 -14 15 -14 6 0 15 -4
20 -9 5 -5 2 -6 -6 -1 -9 5 -12 3 -9 -6 3 -8 10 -13 16 -12 5 1 16 -5 24 -15
12 -15 11 -16 -4 -3 -26 20 -22 -2 4 -25 13 -12 18 -13 13 -4 -8 13 -7 13 8 1
19 -15 23 -26 6 -15 -7 4 -10 1 -7 -7 3 -8 10 -13 16 -12 5 1 16 -5 24 -15 12
-15 11 -16 -4 -3 -26 20 -22 -2 4 -25 12 -10 18 -13 14 -7 -10 19 -1 16 15 -4
12 -14 12 -16 0 -9 -9 6 -12 5 -9 -5 3 -8 10 -13 16 -12 5 1 16 -5 24 -15 12
-15 11 -16 -5 -3 -11 9 -17 10 -17 2 0 -6 11 -16 24 -21 13 -5 28 -15 32 -22
5 -9 2 -8 -11 2 -17 14 -18 14 -7 -6 6 -11 19 -27 29 -35 17 -13 17 -13 3 6
-11 15 -7 14 13 -4 28 -25 38 -43 12 -21 -24 20 -17 -5 7 -26 12 -10 18 -13
14 -6 -10 18 -1 15 15 -5 10 -11 10 -14 2 -9 -27 15 -10 -11 39 -64 28 -30 45
-46 37 -35 -14 20 -13 20 9 1 23 -20 30 -32 11 -20 -22 13 -3 -13 66 -93 39
-45 74 -82 79 -82 6 -1 -6 16 -25 37 l-34 37 43 -40 c41 -38 53 -53 32 -40
-28 17 0 -17 88 -110 103 -108 281 -279 268 -257 -17 28 13 9 54 -35 l45 -48
-42 40 c-24 21 -43 35 -42 30 1 -15 223 -205 227 -195 3 8 202 -147 202 -158
0 -3 -8 2 -17 10 -58 48 -171 133 -138 103 60 -55 260 -209 399 -306 132 -93
311 -209 322 -209 4 0 -69 50 -162 111 -165 109 -394 274 -394 284 0 3 51 -33
113 -79 151 -113 445 -305 595 -390 88 -50 119 -72 110 -79 -9 -6 -8 -7 5 -3
11 3 71 -22 160 -69 623 -325 1358 -549 2112 -644 338 -42 405 -46 805 -46
399 0 464 4 810 46 874 107 1728 400 2467 845 68 41 127 73 132 72 12 -4 140
74 141 85 0 4 -26 -10 -57 -31 -68 -46 -92 -59 -78 -45 6 6 66 48 135 93 232
155 516 375 714 554 50 45 86 75 82 68 -4 -6 -2 -12 4 -12 6 0 15 10 19 23 5
12 78 89 163 172 l153 150 -155 -159 c-140 -144 -145 -150 -52 -66 56 51 102
96 102 99 0 3 31 38 70 76 65 65 87 96 58 79 -7 -4 5 12 27 35 21 22 41 41 44
41 3 0 -11 -17 -30 -37 -18 -20 -26 -31 -16 -24 10 8 41 41 69 75 47 55 48 58
12 26 l-39 -35 30 34 c17 18 40 37 53 42 12 5 22 13 22 19 0 6 -6 8 -12 4 -7
-4 -4 2 6 14 23 26 34 29 16 5 -7 -10 10 7 38 37 49 53 66 79 40 64 -9 -5 -9
-2 1 9 16 20 25 23 15 5 -4 -7 2 -4 14 6 26 23 30 44 5 25 -10 -7 -7 -1 6 14
27 30 41 37 20 10 -11 -15 -10 -14 9 1 23 20 31 42 10 30 -9 -5 -9 -2 1 9 16
20 25 23 15 5 -4 -7 2 -4 14 6 26 23 30 45 5 25 -16 -13 -17 -12 -4 4 7 9 18
17 23 17 11 0 57 51 58 64 0 5 -8 2 -17 -5 -16 -11 -16 -11 -5 1 7 8 18 15 24
15 6 0 13 6 16 14 3 8 0 11 -7 7 -17 -11 -13 0 6 15 15 12 16 12 8 -1 -8 -13
-7 -13 8 -1 18 14 24 36 7 26 -16 -10 -11 1 7 16 15 12 16 12 8 -1 -8 -13 -7
-13 8 -1 20 16 23 36 5 25 -8 -4 -10 -3 -5 2 5 5 14 9 20 9 5 0 12 6 15 14 3
9 0 11 -8 6 -9 -5 -11 -4 -6 4 4 6 11 9 16 6 10 -6 43 43 35 55 -3 5 0 12 6
16 8 5 9 3 4 -7 -8 -12 -6 -12 8 0 19 15 23 36 5 25 -7 -4 -8 -3 -4 5 4 6 11
9 16 6 5 -3 20 11 34 32 28 41 33 58 14 47 -8 -4 -10 -3 -5 2 5 5 13 9 17 9 9
0 70 89 70 101 0 3 -5 2 -12 -2 -7 -4 -8 -3 -4 5 4 6 11 9 16 6 13 -8 63 82
54 96 -4 7 -3 9 4 5 6 -4 22 12 36 37 28 48 32 62 14 51 -7 -4 -8 -3 -4 5 4 6
11 9 16 6 12 -7 33 33 27 49 -6 14 26 69 38 66 9 -2 55 77 55 94 0 6 -5 4 -11
-4 -9 -13 -10 -13 -6 0 2 8 10 15 18 15 8 0 14 10 13 22 0 12 4 21 10 20 6 -1
11 8 10 20 0 12 4 21 10 20 6 -1 11 8 10 20 0 12 4 21 10 20 6 -1 11 8 10 20
0 12 4 21 10 20 5 -1 11 7 13 18 3 17 2 18 -7 5 -10 -13 -11 -13 -7 0 2 8 10
15 18 15 8 0 14 11 15 25 1 31 14 73 21 67 2 -3 0 -15 -7 -26 -6 -12 -8 -21
-6 -21 13 0 36 63 31 83 -5 16 -4 18 3 8 8 -11 14 -6 26 24 9 21 14 40 11 43
-3 3 -5 1 -5 -4 0 -6 -7 -19 -15 -30 -14 -17 -14 -17 -3 11 7 17 21 36 30 43
10 7 18 18 18 24 0 7 -7 3 -15 -8 -9 -12 -7 1 7 34 11 29 23 51 25 48 3 -2 -1
-14 -7 -26 -6 -12 -9 -24 -6 -27 3 -3 9 3 12 13 4 10 18 46 32 79 13 33 28 71
33 85 9 24 9 24 -7 5 -16 -19 -16 -19 -9 5 13 44 33 86 34 70 1 -13 2 -13 11
0 5 8 10 22 10 30 0 13 -1 13 -11 0 -8 -11 -9 -9 -4 10 4 14 12 30 17 35 6 6
7 3 3 -10 -6 -19 -6 -19 5 -1 9 13 9 20 2 25 -7 4 -8 12 -2 21 9 13 10 13 10
0 1 -8 6 -4 11 9 6 16 6 27 0 30 -6 4 -6 12 -1 21 9 13 10 13 10 0 0 -13 1
-13 10 0 13 20 13 33 0 25 -13 -8 -13 15 0 35 9 13 10 13 10 0 1 -8 6 -4 11 9
7 18 6 27 -3 33 -12 7 -5 12 13 10 9 -2 22 49 14 56 -3 3 -5 -2 -5 -11 0 -9
-4 -18 -9 -21 -5 -3 0 24 11 62 21 70 35 98 24 47 -4 -20 -3 -25 3 -15 5 8 11
31 15 50 5 27 4 31 -4 15 -8 -16 -9 -12 -4 15 11 57 32 117 34 95 l1 -20 8 20
c5 11 4 23 -1 26 -6 4 -6 19 0 40 7 22 11 27 12 14 l1 -20 8 20 c5 11 4 23 -1
26 -5 3 2 55 17 120 14 63 36 170 49 239 13 69 25 112 26 95 l2 -30 8 30 c4
17 8 44 8 60 l0 30 -8 -30 c-14 -54 -9 6 10 130 10 66 19 111 20 100 l1 -20 9
20 c12 28 12 37 0 30 -13 -8 -13 4 7 185 25 228 25 927 0 1165 -26 243 -62
491 -102 693 -20 97 -31 178 -27 181 5 3 6 15 1 26 l-8 20 -1 -20 c-1 -11 -15
31 -31 94 -22 83 -27 116 -18 121 8 6 8 9 0 14 -6 4 -11 4 -12 -1 -1 -12 -18
30 -18 47 -1 13 0 13 10 0 8 -12 9 -11 6 5 -2 11 -8 19 -14 18 -12 -2 -28 46
-18 55 3 3 5 -2 5 -11 0 -9 4 -18 9 -21 5 -4 6 5 2 21 -4 16 -12 27 -17 26 -9
-3 -42 79 -43 107 -1 13 0 13 9 0 11 -17 13 -1 4 25 -5 11 -9 13 -14 6 -3 -7
-11 4 -17 24 -12 39 -7 48 7 13 7 -18 9 -19 9 -5 1 9 -8 25 -19 34 -20 18 -28
39 -10 28 13 -8 13 5 0 25 -9 13 -10 13 -10 0 0 -13 -1 -13 -10 0 -5 8 -10 22
-10 30 0 13 1 13 10 0 15 -23 12 -5 -6 40 -9 22 -20 37 -25 34 -5 -3 -9 -2 -8
3 1 4 -5 25 -14 45 -10 21 -17 41 -16 45 0 4 9 -10 19 -32 35 -76 20 -18 -24
90 -25 61 -50 109 -55 107 -6 -1 -11 0 -11 2 0 2 -7 20 -16 41 -8 20 -10 34
-5 30 14 -8 14 -4 -4 39 -9 20 -19 34 -24 31 -5 -2 -12 2 -15 11 -3 8 -2 12 4
9 6 -3 10 -3 10 0 0 10 -30 65 -36 65 -2 0 0 -9 6 -19 5 -11 10 -23 10 -28 -1
-11 -39 59 -39 72 -1 6 4 3 10 -5 8 -12 9 -11 6 5 -2 11 -8 19 -14 18 -6 -1
-9 6 -6 17 4 14 0 20 -10 20 -10 0 -13 6 -10 20 4 14 0 20 -11 20 -10 0 -14 5
-11 10 10 17 -5 50 -23 50 -15 0 -15 2 -2 10 13 8 13 10 -1 10 -10 0 -15 8
-15 23 1 12 -4 21 -10 20 -7 -1 -10 5 -7 16 2 9 -4 24 -13 32 -11 9 -15 9 -10
2 4 -7 5 -13 2 -13 -3 0 -13 15 -21 33 -14 28 -14 30 0 13 8 -11 15 -17 15
-13 0 14 -40 86 -51 93 -8 5 -9 3 -4 -6 5 -8 4 -11 -3 -7 -5 4 -8 16 -5 27 4
15 0 20 -13 20 -16 0 -17 2 -4 10 13 8 13 10 -2 10 -10 0 -22 10 -28 23 -11
21 -10 21 4 3 20 -25 20 -13 1 25 -9 16 -20 27 -25 24 -5 -3 -12 0 -16 6 -5 8
-3 9 6 4 8 -5 11 -3 8 6 -3 8 -11 13 -17 11 -7 -1 -10 2 -6 7 8 14 -23 73 -35
66 -5 -3 -12 0 -16 6 -5 8 -3 9 6 4 8 -5 11 -3 8 6 -3 8 -10 14 -16 14 -5 0
-14 4 -19 9 -5 5 -2 6 6 1 9 -5 12 -3 9 6 -3 8 -11 13 -17 11 -7 -1 -10 2 -6
8 8 13 -13 52 -25 45 -5 -3 -12 0 -16 6 -5 8 -3 9 6 4 8 -5 11 -3 8 6 -3 8
-10 14 -16 14 -5 0 -14 4 -19 9 -5 6 -2 6 6 1 11 -6 13 -4 8 9 -8 21 -97 146
-103 146 -3 0 -2 -6 2 -12 5 -9 2 -9 -9 1 -19 15 -23 26 -6 15 7 -4 10 -1 7 7
-3 8 -10 14 -16 14 -5 0 -14 4 -19 9 -5 5 -2 6 6 1 9 -5 12 -3 9 6 -3 8 -10
14 -16 14 -5 0 -14 4 -19 9 -5 5 -2 6 6 1 9 -5 12 -3 9 6 -3 8 -10 14 -16 14
-6 0 -17 7 -24 15 -11 12 -11 12 5 1 25 -19 21 2 -5 25 -13 12 -18 13 -13 4 8
-13 7 -13 -8 -1 -19 15 -23 26 -6 15 7 -4 10 -1 7 7 -3 8 -10 14 -16 14 -5 0
-14 4 -19 9 -5 5 -3 6 5 2 6 -4 12 -3 12 2 0 12 -25 33 -32 27 -3 -3 -11 2
-19 12 -9 11 -10 14 -1 9 6 -4 12 -2 12 3 0 6 -6 11 -14 11 -7 0 -20 8 -27 18
-13 15 -12 16 4 3 11 -9 17 -10 17 -2 0 6 -11 16 -24 21 -13 5 -28 15 -32 22
-5 9 -2 8 11 -2 17 -14 18 -14 7 6 -6 11 -19 27 -29 35 -17 13 -17 13 -3 -6
15 -20 14 -20 -8 -1 -23 20 -30 32 -12 21 19 -12 10 12 -12 31 -22 19 -23 19
-8 -1 15 -20 14 -20 -8 -1 -23 20 -30 32 -12 21 23 -14 8 13 -22 41 l-33 29
25 -30 25 -30 -27 24 c-15 13 -24 29 -22 35 3 7 -6 21 -18 32 -23 19 -23 19
-8 -1 15 -20 14 -20 -8 -1 -23 20 -30 32 -12 21 25 -16 6 15 -32 50 -41 38
-42 39 -13 5 l30 -35 -31 28 c-17 16 -31 34 -30 41 1 13 -59 86 -71 86 -4 0 9
-17 28 -37 l34 -38 -43 40 c-41 38 -53 53 -32 40 58 -36 -210 242 -381 396
-188 169 -535 449 -599 484 -27 14 2 -10 90 -75 106 -79 280 -219 280 -225 0
-3 -60 43 -132 101 -73 58 -190 146 -260 196 -71 50 -128 93 -128 95 0 3 30
-16 66 -41 36 -26 63 -42 59 -37 -6 11 -133 101 -141 101 -3 0 -2 -5 2 -12 4
-7 3 -8 -5 -4 -6 4 -9 11 -6 16 3 4 -25 27 -62 51 -38 23 -78 49 -90 57 -13 8
-23 12 -23 9 0 -3 36 -28 80 -56 44 -29 80 -54 80 -57 0 -2 -26 12 -57 33
-869 561 -1772 876 -2853 994 -155 17 -272 22 -575 24 -209 2 -429 -1 -490 -6z
m815 -1809 c674 -47 1232 -183 1818 -444 125 -56 222 -105 222 -111 0 -5 -477
-735 -489 -748 -4 -4 -43 9 -87 29 -479 219 -979 339 -1562 375 -536 33 -1173
-72 -1709 -282 -361 -142 -713 -345 -1077 -622 -16 -12 -31 -17 -33 -12 -2 6
-102 183 -222 395 -218 384 -218 385 -197 402 52 43 256 186 354 247 725 456
1521 710 2412 770 181 12 404 12 570 1z m-3273 -1548 l222 -397 -86 -80 c-413
-381 -776 -903 -1002 -1441 -204 -487 -321 -1070 -321 -1606 l0 -138 -449 0
-449 0 -5 63 c-11 145 21 584 63 857 137 885 495 1696 1061 2400 136 169 299
350 425 470 103 99 301 270 312 270 4 0 107 -179 229 -398z"/>
</g>
</svg>
